<svg version="1" xmlns="http://www.w3.org/2000/svg" width="313.3" height="166.7" viewBox="0 0 235.000000 125.000000"><path d="M76.5 1.4C64 4.4 52.8 13.4 47 25.2c-3 6-3.6 6.8-7 7.4C20 36 6.5 48 1.6 66.6-6.3 97 20 126.5 50.7 122c16-2.3 30.4-13.2 35.8-27.4 1.6-4.3 1.8-4.4 7.2-5 6-.7 10.5-2.3 17-6.2l4.4-2.5-3.4-4c-9.3-10.4-13-20.3-12.4-34 .3-8 .8-10.5 3.5-16.2 1.8-3.7 5.3-9 8-11.8 5.3-5.8 5.3-5.8-4.3-10.5C97 0 86.7-1 76.4 1.5zm-17.8 33c19 5.8 32.6 25.8 31 46.3-.3 4-.8 7.7-1.2 8.3-1.8 3-17.7-.7-25.8-6-13.7-9.2-22-26-20.3-41.7 1-9.5 1-9.6 6.6-9 2.6.5 7 1.4 9.7 2.2z"/><path d="M132.3 1.5C127 3 121 5.7 117.6 8.3c-2 1.4-1.8 1.6 2.7 6.6 15.5 17.3 15.6 43.4 0 60-2.3 2.6-4.3 5-4.3 5.3 0 1.3 8 5.7 14 7.7 3.2 1 8.2 2 11 2 4 0 5.2.4 5.6 1.8.3 1 2 4.5 3.5 8 8.2 17.4 28 27.7 47 24.4 26.3-4.5 43-30.2 36.5-55.7-4.7-18-21-32-38.8-33.2l-7.3-.6-1.8-5C178 8 154.2-4.3 132.3 1.5zm56 38.5c1 7-1 17.5-4.5 25-4 8-12.4 16.7-20.3 20.5-6 2.8-16 5.3-17 4.3-.4-.4-1-3.5-1.2-7-1-13 4-25.8 13.5-35 8.2-7.8 19-13 26.2-12.5 2.2.2 2.6.8 3.2 4.7z"/></svg>